<?xml version="1.0" encoding="UTF-8"?><svg xmlns="http://www.w3.org/2000/svg" viewBox="0 0 349.03 97.7"><defs><style>.d{fill:#fff;}.e{fill:none;stroke:#fff;stroke-miterlimit:10;stroke-width:4px;}</style></defs><g id="a"/><g id="b"><g id="c"><g><path class="d" d="M108.51,48.57c-.38,0-.65-.15-.8-.45-.15-.3-.15-.58-.01-.84l9.09-21.51c.16-.42,.45-.63,.87-.63s.69,.21,.87,.63l9.12,21.51c.16,.28,.15,.57-.03,.85-.18,.29-.44,.44-.78,.44-.2,0-.37-.04-.5-.13-.13-.09-.25-.23-.34-.44l-8.82-21.03h.96l-8.79,21.03c-.08,.2-.19,.34-.33,.44-.14,.09-.31,.13-.51,.13Zm2.22-5.88l.72-1.62h12.48l.69,1.62h-13.89Z"/><path class="d" d="M137.49,48.75c-1.56,0-2.96-.37-4.18-1.11-1.23-.74-2.2-1.74-2.91-3-.71-1.26-1.07-2.68-1.07-4.26s.33-3.03,.99-4.29c.66-1.26,1.57-2.25,2.73-2.98s2.49-1.1,3.99-1.1c1.28,0,2.45,.25,3.51,.73,1.06,.49,1.98,1.24,2.76,2.24,.16,.2,.22,.41,.18,.63-.04,.22-.17,.4-.39,.54-.18,.14-.38,.19-.6,.17-.22-.03-.41-.15-.57-.35-1.28-1.52-2.91-2.28-4.89-2.28-1.18,0-2.21,.29-3.1,.87-.89,.58-1.58,1.37-2.07,2.37-.49,1-.74,2.15-.74,3.45s.27,2.4,.81,3.4c.54,1.01,1.29,1.81,2.23,2.4,.95,.59,2.06,.88,3.32,.88,.82,0,1.59-.12,2.33-.36,.73-.24,1.37-.61,1.91-1.11,.18-.16,.38-.25,.6-.27,.22-.02,.41,.05,.57,.21,.2,.18,.3,.39,.31,.61,0,.23-.08,.43-.25,.58-1.46,1.34-3.28,2.01-5.46,2.01Z"/><path class="d" d="M146.73,34.38c-.24,0-.44-.08-.58-.23-.15-.15-.23-.34-.23-.58s.08-.44,.23-.58c.15-.15,.34-.23,.58-.23h8.13c.24,0,.43,.08,.58,.23s.22,.34,.22,.58-.07,.44-.22,.58-.34,.23-.58,.23h-8.13Zm8.01,14.19c-1.1-.02-2.08-.27-2.94-.77-.86-.49-1.53-1.17-2.01-2.04-.48-.87-.72-1.85-.72-2.95v-14.94c0-.28,.08-.5,.25-.67s.38-.25,.65-.25c.28,0,.5,.08,.67,.25s.25,.4,.25,.67v14.94c0,1.16,.36,2.1,1.08,2.83s1.65,1.09,2.79,1.09h.66c.28,0,.5,.09,.67,.25,.17,.17,.25,.4,.25,.68,0,.26-.08,.48-.25,.65s-.4,.25-.67,.25h-.69Z"/><path class="d" d="M161.58,28.71c-.38,0-.71-.14-.97-.41-.27-.27-.41-.6-.41-1,0-.46,.14-.8,.43-1.04,.29-.23,.62-.34,.98-.34,.34,0,.65,.12,.94,.34,.29,.23,.44,.58,.44,1.04,0,.4-.13,.73-.41,1-.27,.27-.6,.41-1,.41Zm.03,19.86c-.26,0-.48-.08-.65-.25s-.25-.38-.25-.65v-14.61c0-.28,.08-.5,.25-.66s.38-.24,.65-.24c.28,0,.5,.08,.66,.24,.16,.16,.24,.38,.24,.66v14.61c0,.26-.08,.48-.24,.65-.16,.17-.38,.25-.66,.25Z"/><path class="d" d="M174.15,48.6c-.38,0-.66-.21-.84-.63l-6.84-14.64c-.08-.22-.08-.43,0-.64,.08-.21,.23-.36,.45-.47,.22-.1,.43-.11,.64-.03,.21,.08,.37,.23,.46,.45l6.72,14.52h-1.11l6.6-14.55c.1-.22,.27-.37,.5-.45,.23-.08,.46-.07,.67,.03,.22,.1,.38,.25,.47,.46,.09,.21,.08,.43-.02,.65l-6.75,14.67c-.2,.42-.52,.63-.96,.63Z"/><path class="d" d="M192.12,48.75c-1.6,0-3.04-.36-4.31-1.1-1.27-.73-2.27-1.73-3-3-.73-1.27-1.09-2.69-1.09-4.27s.37-3.03,1.09-4.31c.73-1.27,1.73-2.27,3-3,1.27-.73,2.71-1.09,4.31-1.09s3.03,.37,4.29,1.09c1.26,.73,2.25,1.73,2.98,3,.73,1.27,1.1,2.71,1.1,4.31l-.75,1.2c0,1.36-.34,2.58-1,3.66-.67,1.08-1.58,1.94-2.72,2.56-1.14,.63-2.44,.95-3.9,.95Zm0-1.68c1.26,0,2.38-.29,3.38-.88s1.77-1.39,2.34-2.4c.57-1.01,.85-2.15,.85-3.4s-.28-2.42-.85-3.44c-.57-1.01-1.35-1.81-2.34-2.4s-2.12-.89-3.38-.89-2.36,.3-3.36,.89-1.79,1.39-2.37,2.4c-.58,1.01-.87,2.16-.87,3.44s.29,2.4,.87,3.4c.58,1.01,1.37,1.81,2.37,2.4s2.12,.88,3.36,.88Zm7.47,1.5c-.26,0-.48-.08-.64-.25-.17-.17-.26-.38-.26-.65v-5.49l.57-1.8h1.23v7.29c0,.26-.08,.48-.24,.65s-.38,.25-.66,.25Z"/><path class="d" d="M203.7,34.38c-.24,0-.44-.08-.58-.23-.15-.15-.23-.34-.23-.58s.08-.44,.23-.58c.15-.15,.34-.23,.58-.23h8.13c.24,0,.43,.08,.58,.23s.22,.34,.22,.58-.07,.44-.22,.58-.34,.23-.58,.23h-8.13Zm8.01,14.19c-1.1-.02-2.08-.27-2.94-.77-.86-.49-1.53-1.17-2.01-2.04-.48-.87-.72-1.85-.72-2.95v-14.94c0-.28,.08-.5,.25-.67s.38-.25,.65-.25c.28,0,.5,.08,.67,.25s.25,.4,.25,.67v14.94c0,1.16,.36,2.1,1.08,2.83s1.65,1.09,2.79,1.09h.66c.28,0,.5,.09,.67,.25,.17,.17,.25,.4,.25,.68,0,.26-.08,.48-.25,.65s-.4,.25-.67,.25h-.69Z"/><path class="d" d="M224.34,48.72c-1.58,0-2.99-.35-4.21-1.06-1.23-.71-2.2-1.69-2.9-2.96-.7-1.26-1.05-2.7-1.05-4.32s.33-3.08,.99-4.33,1.57-2.23,2.73-2.96,2.49-1.08,3.99-1.08,2.79,.35,3.93,1.04c1.14,.69,2.03,1.64,2.67,2.85,.64,1.21,.96,2.6,.96,4.18,0,.26-.08,.47-.24,.62s-.37,.23-.63,.23h-13.2v-1.56h13.68l-1.32,.99c.04-1.3-.18-2.45-.66-3.45-.48-1-1.17-1.79-2.06-2.35-.89-.57-1.93-.85-3.13-.85s-2.16,.28-3.04,.85c-.89,.57-1.59,1.35-2.1,2.35s-.77,2.16-.77,3.48,.27,2.45,.81,3.45c.54,1,1.29,1.79,2.25,2.36,.96,.57,2.06,.85,3.3,.85,.78,0,1.56-.14,2.36-.41,.79-.27,1.41-.62,1.88-1.06,.16-.16,.35-.24,.58-.25,.23,0,.42,.06,.58,.19,.22,.18,.33,.38,.34,.6,0,.22-.08,.42-.29,.6-.64,.58-1.47,1.06-2.5,1.44s-2.02,.57-2.96,.57Z"/><path class="d" d="M242.85,34.38c-.24,0-.44-.08-.58-.23-.15-.15-.23-.34-.23-.58s.08-.44,.23-.58c.15-.15,.34-.23,.58-.23h8.13c.24,0,.43,.08,.58,.23s.22,.34,.22,.58-.07,.44-.22,.58-.34,.23-.58,.23h-8.13Zm8.01,14.19c-1.1-.02-2.08-.27-2.94-.77-.86-.49-1.53-1.17-2.01-2.04-.48-.87-.72-1.85-.72-2.95v-14.94c0-.28,.08-.5,.25-.67s.38-.25,.65-.25c.28,0,.5,.08,.67,.25s.25,.4,.25,.67v14.94c0,1.16,.36,2.1,1.08,2.83s1.65,1.09,2.79,1.09h.66c.28,0,.5,.09,.67,.25,.17,.17,.25,.4,.25,.68,0,.26-.08,.48-.25,.65s-.4,.25-.67,.25h-.69Z"/><path class="d" d="M257.13,41.37c-.26,0-.47-.08-.64-.25-.17-.17-.25-.38-.25-.65v-14.43c0-.28,.08-.5,.25-.66,.17-.16,.38-.24,.64-.24,.28,0,.5,.08,.66,.24,.16,.16,.24,.38,.24,.66v14.43c0,.26-.08,.48-.24,.65-.16,.17-.38,.25-.66,.25Zm0,7.2c-.26,0-.47-.08-.64-.25s-.25-.38-.25-.65v-14.61c0-.28,.08-.5,.25-.66s.38-.24,.64-.24c.28,0,.5,.08,.66,.24s.24,.38,.24,.66v14.61c0,.26-.08,.48-.24,.65s-.38,.25-.66,.25Zm13.29,0c-.26,0-.47-.08-.64-.25s-.25-.38-.25-.65v-8.07c0-1.32-.25-2.41-.77-3.27-.51-.86-1.2-1.5-2.07-1.93s-1.86-.65-2.96-.65-2.05,.21-2.91,.61c-.86,.41-1.54,.98-2.04,1.7-.5,.72-.75,1.53-.75,2.43h-1.5c.08-1.24,.45-2.35,1.11-3.34,.66-.99,1.52-1.77,2.58-2.34,1.06-.57,2.23-.85,3.51-.85,1.44,0,2.73,.3,3.88,.89,1.15,.59,2.05,1.45,2.71,2.58s.99,2.52,.99,4.18v8.07c0,.26-.08,.48-.25,.65s-.39,.25-.65,.25Z"/><path class="d" d="M283.68,48.72c-1.58,0-2.99-.35-4.21-1.06-1.23-.71-2.2-1.69-2.9-2.96-.7-1.26-1.05-2.7-1.05-4.32s.33-3.08,.99-4.33,1.57-2.23,2.73-2.96,2.49-1.08,3.99-1.08,2.79,.35,3.93,1.04c1.14,.69,2.03,1.64,2.67,2.85,.64,1.21,.96,2.6,.96,4.18,0,.26-.08,.47-.24,.62s-.37,.23-.63,.23h-13.2v-1.56h13.68l-1.32,.99c.04-1.3-.18-2.45-.66-3.45-.48-1-1.17-1.79-2.06-2.35-.89-.57-1.93-.85-3.13-.85s-2.16,.28-3.04,.85c-.89,.57-1.59,1.35-2.1,2.35s-.77,2.16-.77,3.48,.27,2.45,.81,3.45c.54,1,1.29,1.79,2.25,2.36,.96,.57,2.06,.85,3.3,.85,.78,0,1.56-.14,2.36-.41,.79-.27,1.41-.62,1.88-1.06,.16-.16,.35-.24,.58-.25,.23,0,.42,.06,.58,.19,.22,.18,.33,.38,.34,.6,0,.22-.08,.42-.29,.6-.64,.58-1.47,1.06-2.5,1.44s-2.02,.57-2.96,.57Z"/><path class="d" d="M63.82,88.17c-.48,0-.89-.17-1.22-.5s-.5-.74-.5-1.22v-22.34c0-.51,.17-.92,.5-1.24,.33-.32,.74-.48,1.22-.48s.92,.16,1.24,.48c.32,.32,.48,.73,.48,1.24v22.34c0,.48-.16,.89-.48,1.22s-.73,.5-1.24,.5Z"/><path class="d" d="M73.48,88.2c-.48,0-.89-.16-1.2-.48-.32-.32-.48-.72-.48-1.2v-14.72c0-.51,.16-.91,.48-1.22,.32-.31,.72-.46,1.2-.46s.91,.15,1.22,.46c.31,.31,.46,.71,.46,1.22v14.72c0,.48-.15,.89-.46,1.2-.31,.32-.72,.48-1.22,.48Zm13.56,0c-.48,0-.89-.16-1.2-.48-.32-.32-.48-.72-.48-1.2v-8.12c0-1.25-.23-2.28-.69-3.07s-1.08-1.38-1.86-1.77c-.78-.38-1.68-.58-2.69-.58-.92,0-1.76,.19-2.51,.56-.75,.37-1.34,.87-1.78,1.5-.44,.63-.66,1.35-.66,2.16h-2.08c0-1.39,.34-2.62,1.01-3.71,.67-1.09,1.59-1.95,2.76-2.59,1.17-.64,2.48-.96,3.93-.96s2.88,.32,4.08,.97c1.2,.65,2.15,1.6,2.84,2.85,.69,1.25,1.04,2.79,1.04,4.62v8.12c0,.48-.16,.89-.48,1.2s-.72,.48-1.2,.48Z"/><path class="d" d="M93.55,73.61c-.46,0-.84-.13-1.12-.4-.29-.26-.43-.59-.43-.99,0-.44,.14-.79,.43-1.06,.29-.26,.66-.4,1.12-.4h7.62c.46,0,.84,.13,1.12,.4,.29,.26,.43,.62,.43,1.06,0,.4-.14,.73-.43,.99-.29,.26-.66,.4-1.12,.4h-7.62Zm7.33,14.55c-1.1,0-2.09-.28-2.97-.84s-1.57-1.33-2.08-2.29c-.51-.97-.76-2.06-.76-3.27v-15.74c0-.48,.15-.88,.46-1.19,.31-.31,.7-.46,1.19-.46s.88,.15,1.19,.46c.31,.31,.46,.7,.46,1.19v15.74c0,.88,.24,1.62,.73,2.21,.48,.59,1.08,.89,1.78,.89h1.12c.4,0,.73,.15,1.01,.46,.27,.31,.41,.7,.41,1.19s-.18,.88-.54,1.19c-.36,.31-.83,.46-1.4,.46h-.59Z"/><path class="d" d="M116.02,88.3c-1.83,0-3.45-.39-4.87-1.17-1.42-.78-2.53-1.86-3.33-3.23-.8-1.37-1.2-2.95-1.2-4.74s.38-3.39,1.14-4.77c.76-1.38,1.81-2.45,3.15-3.23,1.34-.78,2.88-1.17,4.62-1.17s3.19,.38,4.42,1.14c1.23,.76,2.17,1.8,2.82,3.13,.65,1.33,.97,2.87,.97,4.6,0,.42-.14,.76-.43,1.04-.29,.28-.65,.41-1.09,.41h-13.3v-2.64h13.2l-1.35,.92c-.02-1.1-.24-2.08-.66-2.95-.42-.87-1.01-1.56-1.78-2.06-.77-.51-1.71-.76-2.81-.76-1.25,0-2.33,.28-3.22,.83-.89,.55-1.57,1.3-2.03,2.26-.46,.96-.69,2.04-.69,3.25s.27,2.29,.82,3.23c.55,.95,1.31,1.69,2.28,2.24,.97,.55,2.08,.82,3.33,.82,.68,0,1.38-.13,2.1-.38s1.29-.54,1.73-.87c.33-.24,.69-.37,1.07-.38,.38-.01,.72,.1,1.01,.35,.37,.33,.57,.69,.59,1.09,.02,.4-.15,.74-.53,1.02-.75,.59-1.68,1.08-2.79,1.45-1.11,.37-2.17,.56-3.18,.56Z"/><path class="d" d="M129.68,88.17c-.53,0-.94-.14-1.22-.41-.29-.27-.43-.69-.43-1.24v-14.75c0-.53,.14-.94,.43-1.22,.29-.29,.69-.43,1.22-.43s.96,.14,1.24,.41c.28,.28,.41,.69,.41,1.24v14.75c0,.53-.14,.94-.41,1.22-.28,.29-.69,.43-1.24,.43Zm-.03-11.29c0-1.32,.32-2.5,.97-3.55,.65-1.04,1.52-1.88,2.62-2.49,1.1-.62,2.31-.92,3.63-.92s2.3,.21,2.95,.64c.65,.43,.9,.94,.74,1.53-.07,.31-.19,.54-.38,.71-.19,.17-.4,.27-.64,.31-.24,.04-.51,.03-.79-.03-1.41-.29-2.67-.31-3.79-.07-1.12,.24-2.01,.69-2.66,1.35-.65,.66-.97,1.5-.97,2.51h-1.68Z"/><path class="d" d="M150.27,88.3c-1.61,0-3.05-.4-4.32-1.2-1.28-.8-2.28-1.89-3.02-3.27s-1.11-2.93-1.11-4.67,.4-3.3,1.21-4.69c.8-1.39,1.89-2.48,3.27-3.28,1.38-.8,2.92-1.2,4.64-1.2s3.25,.4,4.62,1.2c1.36,.8,2.45,1.9,3.25,3.28,.8,1.39,1.2,2.95,1.2,4.69h-1.29c0,1.74-.37,3.29-1.11,4.67-.74,1.38-1.74,2.46-3.02,3.27-1.28,.8-2.72,1.2-4.32,1.2Zm.66-2.97c1.12,0,2.12-.27,3-.81,.88-.54,1.57-1.28,2.08-2.21,.51-.94,.76-1.99,.76-3.15s-.25-2.25-.76-3.18c-.51-.94-1.2-1.67-2.08-2.21-.88-.54-1.88-.81-3-.81s-2.1,.27-2.99,.81c-.89,.54-1.6,1.28-2.11,2.21-.52,.94-.78,2-.78,3.18s.26,2.22,.78,3.15c.52,.94,1.22,1.67,2.11,2.21,.89,.54,1.89,.81,2.99,.81Zm7.39,2.87c-.48,0-.89-.16-1.2-.48-.32-.32-.48-.72-.48-1.2v-5.05l.63-3.5,2.74,1.19v7.36c0,.48-.16,.89-.48,1.2-.32,.32-.72,.48-1.21,.48Z"/><path class="d" d="M173.21,88.3c-1.76,0-3.33-.4-4.7-1.2s-2.45-1.89-3.23-3.27c-.78-1.38-1.17-2.93-1.17-4.67s.38-3.37,1.16-4.75c.77-1.39,1.83-2.47,3.17-3.25,1.34-.78,2.88-1.17,4.62-1.17,1.3,0,2.49,.25,3.56,.74s2.05,1.24,2.9,2.23c.31,.35,.42,.71,.33,1.09-.09,.37-.33,.7-.73,.99-.31,.22-.65,.29-1.02,.21-.37-.08-.71-.27-1.02-.58-1.08-1.14-2.42-1.72-4.03-1.72-1.12,0-2.11,.26-2.97,.78-.86,.52-1.53,1.24-2.01,2.16-.48,.92-.73,2.01-.73,3.27,0,1.19,.25,2.24,.74,3.17,.5,.92,1.18,1.66,2.06,2.19,.88,.54,1.9,.81,3.07,.81,.77,0,1.45-.09,2.03-.28,.58-.19,1.12-.48,1.6-.87,.35-.29,.71-.45,1.09-.48,.37-.03,.7,.07,.99,.31,.37,.31,.58,.66,.63,1.04,.04,.39-.09,.73-.4,1.04-1.58,1.47-3.56,2.21-5.94,2.21Z"/><path class="d" d="M184.1,73.61c-.46,0-.84-.13-1.12-.4-.29-.26-.43-.59-.43-.99,0-.44,.14-.79,.43-1.06,.29-.26,.66-.4,1.12-.4h7.62c.46,0,.84,.13,1.12,.4,.29,.26,.43,.62,.43,1.06,0,.4-.14,.73-.43,.99-.29,.26-.66,.4-1.12,.4h-7.62Zm7.33,14.55c-1.1,0-2.09-.28-2.97-.84-.88-.56-1.57-1.33-2.08-2.29-.51-.97-.76-2.06-.76-3.27v-15.74c0-.48,.15-.88,.46-1.19s.7-.46,1.19-.46,.88,.15,1.19,.46c.31,.31,.46,.7,.46,1.19v15.74c0,.88,.24,1.62,.73,2.21,.48,.59,1.08,.89,1.78,.89h1.12c.4,0,.73,.15,1.01,.46,.28,.31,.41,.7,.41,1.19s-.18,.88-.54,1.19c-.36,.31-.83,.46-1.4,.46h-.59Z"/><path class="d" d="M200.1,67.18c-.59,0-1.11-.21-1.54-.64-.43-.43-.64-.94-.64-1.53s.21-1.11,.64-1.53c.43-.43,.94-.64,1.54-.64s1.11,.21,1.53,.64c.43,.43,.64,.94,.64,1.53s-.21,1.11-.64,1.53c-.43,.43-.94,.64-1.53,.64Zm0,20.99c-.48,0-.89-.16-1.21-.48-.32-.32-.48-.72-.48-1.2v-14.69c0-.51,.16-.91,.48-1.22,.32-.31,.72-.46,1.21-.46s.91,.15,1.22,.46c.31,.31,.46,.71,.46,1.22v14.69c0,.48-.15,.89-.46,1.2-.31,.32-.71,.48-1.22,.48Z"/><path class="d" d="M214.16,88.13c-.68,0-1.21-.36-1.58-1.09l-7-14.75c-.18-.37-.19-.74-.05-1.11,.14-.36,.42-.64,.84-.84,.37-.2,.75-.23,1.14-.1,.38,.13,.68,.39,.87,.76l6.53,14.09h-1.58l6.47-14.09c.2-.37,.5-.63,.91-.76,.41-.13,.82-.1,1.24,.1,.4,.18,.66,.45,.79,.82,.13,.37,.11,.75-.07,1.12l-7,14.75c-.33,.73-.84,1.09-1.52,1.09Z"/><path class="d" d="M233.96,88.3c-1.83,0-3.45-.39-4.87-1.17-1.42-.78-2.53-1.86-3.33-3.23-.8-1.37-1.21-2.95-1.21-4.74s.38-3.39,1.14-4.77,1.81-2.45,3.15-3.23c1.34-.78,2.88-1.17,4.62-1.17s3.19,.38,4.42,1.14c1.23,.76,2.17,1.8,2.82,3.13,.65,1.33,.97,2.87,.97,4.6,0,.42-.14,.76-.43,1.04-.29,.28-.65,.41-1.09,.41h-13.3v-2.64h13.2l-1.35,.92c-.02-1.1-.24-2.08-.66-2.95-.42-.87-1.01-1.56-1.78-2.06-.77-.51-1.71-.76-2.8-.76-1.25,0-2.33,.28-3.22,.83-.89,.55-1.57,1.3-2.03,2.26-.46,.96-.69,2.04-.69,3.25s.28,2.29,.83,3.23c.55,.95,1.31,1.69,2.28,2.24,.97,.55,2.08,.82,3.33,.82,.68,0,1.38-.13,2.1-.38,.71-.25,1.29-.54,1.73-.87,.33-.24,.69-.37,1.07-.38,.38-.01,.72,.1,1.01,.35,.37,.33,.57,.69,.59,1.09,.02,.4-.15,.74-.53,1.02-.75,.59-1.68,1.08-2.79,1.45-1.11,.37-2.17,.56-3.18,.56Z"/><path class="d" d="M257.69,88.17c-.48,0-.89-.17-1.22-.5s-.5-.74-.5-1.22v-22.34c0-.51,.17-.92,.5-1.24,.33-.32,.74-.48,1.22-.48h5.94c1.65,0,3.11,.35,4.39,1.04s2.27,1.64,2.99,2.85,1.07,2.62,1.07,4.22c0,1.5-.36,2.83-1.07,3.99-.71,1.17-1.71,2.08-2.99,2.74-1.28,.66-2.74,.99-4.39,.99h-4.22v8.22c0,.48-.16,.89-.48,1.22-.32,.33-.73,.5-1.24,.5Zm1.72-13.1h4.22c1.01,0,1.9-.19,2.67-.58,.77-.38,1.38-.92,1.82-1.62,.44-.69,.66-1.48,.66-2.36,0-.97-.22-1.83-.66-2.57-.44-.75-1.05-1.33-1.82-1.75-.77-.42-1.66-.63-2.67-.63h-4.22v9.5Zm11.98,13.1c-.31,0-.59-.07-.84-.2-.25-.13-.47-.34-.64-.63l-5.94-9.57,3.33-.96,5.41,8.71c.4,.64,.45,1.24,.17,1.8-.29,.56-.78,.84-1.49,.84Z"/><path class="d" d="M284.68,88.3c-1.78,0-3.36-.39-4.72-1.17-1.36-.78-2.44-1.86-3.22-3.23-.78-1.37-1.17-2.95-1.17-4.74s.39-3.39,1.17-4.77c.78-1.38,1.85-2.45,3.22-3.23,1.36-.78,2.94-1.17,4.72-1.17s3.32,.39,4.69,1.17c1.36,.78,2.44,1.86,3.22,3.23,.78,1.38,1.17,2.96,1.17,4.77s-.38,3.36-1.15,4.74c-.77,1.38-1.84,2.45-3.2,3.23-1.36,.78-2.94,1.17-4.72,1.17Zm0-2.97c1.14,0,2.16-.26,3.04-.79,.88-.53,1.57-1.25,2.06-2.18,.49-.92,.74-1.99,.74-3.2s-.25-2.28-.74-3.22c-.5-.93-1.18-1.67-2.06-2.19-.88-.53-1.89-.79-3.04-.79s-2.16,.26-3.04,.79c-.88,.53-1.57,1.26-2.08,2.19-.51,.94-.76,2.01-.76,3.22s.25,2.28,.76,3.2c.51,.92,1.2,1.65,2.08,2.18,.88,.53,1.89,.79,3.04,.79Z"/><path class="d" d="M306.95,88.3c-1.78,0-3.36-.39-4.72-1.17-1.36-.78-2.44-1.86-3.22-3.23-.78-1.37-1.17-2.95-1.17-4.74s.39-3.39,1.17-4.77c.78-1.38,1.85-2.45,3.22-3.23,1.36-.78,2.94-1.17,4.72-1.17s3.32,.39,4.69,1.17c1.36,.78,2.44,1.86,3.22,3.23,.78,1.38,1.17,2.96,1.17,4.77s-.38,3.36-1.15,4.74c-.77,1.38-1.84,2.45-3.2,3.23-1.36,.78-2.94,1.17-4.72,1.17Zm0-2.97c1.14,0,2.16-.26,3.04-.79,.88-.53,1.57-1.25,2.06-2.18,.49-.92,.74-1.99,.74-3.2s-.25-2.28-.74-3.22c-.5-.93-1.18-1.67-2.06-2.19-.88-.53-1.89-.79-3.04-.79s-2.16,.26-3.04,.79c-.88,.53-1.57,1.26-2.08,2.19-.51,.94-.76,2.01-.76,3.22s.25,2.28,.76,3.2c.51,.92,1.2,1.65,2.08,2.18,.88,.53,1.89,.79,3.04,.79Z"/><path class="d" d="M322.73,88.2c-.48,0-.89-.16-1.21-.48s-.48-.72-.48-1.2v-14.69c0-.51,.16-.91,.48-1.22,.32-.31,.72-.46,1.21-.46s.91,.15,1.22,.46c.31,.31,.46,.72,.46,1.22v14.69c0,.48-.15,.89-.46,1.2-.31,.32-.71,.48-1.22,.48Zm11.02,0c-.48,0-.89-.16-1.2-.48-.32-.32-.48-.72-.48-1.2v-9.44c0-1.39-.34-2.41-1.02-3.09-.68-.67-1.57-1.01-2.67-1.01s-2.09,.4-2.84,1.19-1.12,1.8-1.12,3.04h-2.08c0-1.43,.29-2.69,.86-3.78,.57-1.09,1.36-1.94,2.38-2.56,1.01-.62,2.17-.92,3.46-.92s2.36,.28,3.33,.82c.97,.55,1.72,1.36,2.26,2.43,.54,1.07,.81,2.36,.81,3.88v9.44c0,.48-.15,.89-.46,1.2-.31,.32-.72,.48-1.22,.48Zm10.99,0c-.48,0-.89-.16-1.2-.48-.32-.32-.48-.72-.48-1.2v-9.44c0-1.39-.34-2.41-1.02-3.09-.68-.67-1.57-1.01-2.67-1.01s-2.08,.4-2.82,1.19c-.74,.79-1.11,1.8-1.11,3.04h-2.74c0-1.43,.31-2.69,.92-3.78,.62-1.09,1.48-1.94,2.59-2.56,1.11-.62,2.38-.92,3.81-.92,1.25,0,2.36,.28,3.33,.82,.97,.55,1.72,1.36,2.26,2.43,.54,1.07,.81,2.36,.81,3.88v9.44c0,.48-.15,.89-.46,1.2-.31,.32-.71,.48-1.22,.48Z"/></g><g><path class="e" d="M17.56,11.36c18.04-.11,46.99,4.86,72.33,32.33"/><polygon class="d" points="26.87 21.83 21.24 11.34 24.88 0 0 13.27 26.87 21.83"/></g></g></g></svg>